<svg id="圖層_1" data-name="圖層 1" xmlns="http://www.w3.org/2000/svg" viewBox="0 0 120 120"><defs><style>.cls-1{fill:#777;stroke:#777;}.cls-1,.cls-3{stroke-miterlimit:10;}.cls-2{fill:#55c8c5;}.cls-3{fill:none;stroke:#55c8c5;stroke-width:3px;}</style></defs><path class="cls-1" d="M45,47.06h8.22a1.09,1.09,0,0,0,0-2.17H45a1.09,1.09,0,0,0,0,2.17Z"/><path class="cls-1" d="M82.16,80.45a1.08,1.08,0,0,0-1.09-1.08H45a1.08,1.08,0,0,0,0,2.16H81.07A1.08,1.08,0,0,0,82.16,80.45Z"/><path class="cls-1" d="M45,86.46H60.54a1.08,1.08,0,1,0,0-2.16H45a1.08,1.08,0,1,0,0,2.16Z"/><path class="cls-1" d="M67.44,84.3a1.08,1.08,0,0,0,0,2.16h5.81a1.08,1.08,0,1,0,0-2.16Z"/><path class="cls-1" d="M95.28,35.83H87.22V27.57a4.3,4.3,0,0,0-4.3-4.3H50.42a6.33,6.33,0,0,0-4.49,1.85L34.2,36l0,0a6.33,6.33,0,0,0-1.86,4.51v15a1.08,1.08,0,0,0,2.16,0v-15c0-.11,0-.23,0-.34H45.61a4.46,4.46,0,0,0,4.46-4.46V25.45l.34,0H82.92a2.14,2.14,0,0,1,2.13,2.13v8.26H75.77a1.09,1.09,0,1,0,0,2.17H95.28a.57.57,0,0,1,.57.58V66.1a.57.57,0,0,1-.57.58H74.44a2.76,2.76,0,0,0-2,.83l-6.36,6.28c-.25.25-.67.6-.78.55a.54.54,0,0,1-.36-.53V38.58a.58.58,0,0,1,.58-.58h5.88a1.09,1.09,0,1,0,0-2.17H65.55a2.75,2.75,0,0,0-2.75,2.75V51.45H45a1.09,1.09,0,0,0,0,2.17H62.8v2.76H45a1.08,1.08,0,0,0,0,2.16H62.8v5H45a1.09,1.09,0,0,0,0,2.17H62.8v2.76H45a1.09,1.09,0,0,0,0,2.17H62.8v3.19a2.75,2.75,0,0,0,1.72,2.55c.34.13.3-.27.65-.27.73,0,.5.43,1-.11L74,69a.58.58,0,0,1,.41-.17H85.07V92.43a2.14,2.14,0,0,1-2.13,2.13H36.61a2.14,2.14,0,0,1-2.13-2.13V64.34a1.08,1.08,0,1,0-2.16,0V92.43a4.3,4.3,0,0,0,4.3,4.3H82.94a4.3,4.3,0,0,0,4.3-4.3V68.84h8.05A2.75,2.75,0,0,0,98,66.09V38.58a2.78,2.78,0,0,0-2.76-2.75ZM47.9,35.77a2.28,2.28,0,0,1-2.28,2.29H35.31a5.34,5.34,0,0,1,.39-.44L47.42,26.7l0,0a3.31,3.31,0,0,1,.45-.39Z"/><path class="cls-2" d="M76.61,59.49a1.23,1.23,0,0,0,1.23-1.23V55.8a1.23,1.23,0,0,0-2.46,0v2.46A1.23,1.23,0,0,0,76.61,59.49Z"/><path class="cls-2" d="M80.34,59.49a1.23,1.23,0,0,0,1.23-1.23V55.8a1.23,1.23,0,1,0-2.46,0v2.46A1.23,1.23,0,0,0,80.34,59.49Z"/><path class="cls-2" d="M84.07,59.49a1.23,1.23,0,0,0,1.23-1.23V55.8a1.23,1.23,0,0,0-2.46,0v2.46A1.23,1.23,0,0,0,84.07,59.49Z"/><path class="cls-2" d="M87.56,49.58h-.24V47.43a7,7,0,1,0-14,0v2.15h-.25a1.94,1.94,0,0,0-1.94,1.94V61.85a2,2,0,0,0,1.94,1.95H87.56a2,2,0,0,0,2-1.95V51.51A2,2,0,0,0,87.56,49.58ZM75.82,47.43a4.52,4.52,0,1,1,9,0v2.15h-9Zm11.23,13.9H73.63V52H87v9.3Z"/><path class="cls-3" d="M94.72,67.61H73.78l-9.13,8c-1.3.29-.83-8.9-.83-9.94V38.76a1.9,1.9,0,0,1,1.89-1.89h29a1.9,1.9,0,0,1,1.9,1.89v27A1.91,1.91,0,0,1,94.72,67.61Z"/></svg>